<svg width="144" height="144" viewBox="0 0 144 144" fill="none" xmlns="http://www.w3.org/2000/svg">
<path d="M27.0836 65.3294C27.0836 65.3294 47.0229 64.5309 51.3318 31.7549C55.1583 2.64665 88.7812 15.8957 98.5003 27.4989C111.091 42.5299 104.379 68.3864 120.666 71.6528C136.953 74.9192 126.318 111.236 101.595 107.76C70.8403 103.436 78.2811 121.407 69.0488 129.013C62.423 134.473 35.2547 129.217 34.3493 109.4C33.5873 92.7243 26.553 92.7771 21.5671 90.8863C14.3763 88.1591 9.84522 68.4088 27.0836 65.3294Z" fill="#ECECEC"/>
<g clip-path="url(#clip0_2092_64)">
<path d="M117.991 60.3841C117.819 66.3307 115.295 72.0351 110.884 76.4465C110.5 76.8304 109.997 77.0222 109.494 77.0222C108.991 77.0222 108.489 76.8304 108.105 76.4465L69.5531 37.8946C69.1845 37.5261 68.9778 37.0267 68.9778 36.5057C68.9778 35.9846 69.1849 35.4848 69.5531 35.1167C74.142 30.5273 80.0733 28 86.2536 28C92.0771 28 97.5954 30.3108 101.791 34.5072L101.918 34.6342C102.648 35.3642 102.688 36.5351 102.011 37.3135L94.9867 45.3779L100.622 51.0129L108.686 43.9889C109.465 43.3107 110.636 43.3508 111.366 44.0813L111.493 44.2082C115.858 48.5728 118.165 54.3177 117.991 60.3841ZM50.5025 74.5L43.6338 81.8834L71.9028 95.123L79.4823 88.0724L50.5025 74.5ZM60.1826 64.0937L53.3139 71.4776L82.5844 85.1867L90.164 78.1357L60.1826 64.0937ZM95.7726 70.1385L75.8615 50.2274C75.4843 49.8502 74.9731 49.6313 74.4367 49.6522C73.9035 49.6616 73.3971 49.8879 73.0336 50.2785L62.994 61.0713L93.2669 75.2497L95.7215 72.966C96.1121 72.6025 96.338 72.096 96.3474 71.5628C96.3573 71.03 96.1498 70.5153 95.7726 70.1385ZM40.8224 84.9058L40.5261 85.2245C39.8059 85.9985 39.8279 87.204 40.5752 87.9514L58.0482 105.424C58.4313 105.807 58.9339 106 59.4376 106C59.9174 106 60.3979 105.825 60.7755 105.474L68.7998 98.0091L40.8224 84.9058Z" fill="#828282"/>
</g>
<defs>
<clipPath id="clip0_2092_64">
<rect width="78" height="78" fill="white" transform="translate(40 28)"/>
</clipPath>
</defs>
</svg>
