<svg width="189" height="41" viewBox="0 0 189 41" fill="none" xmlns="http://www.w3.org/2000/svg">
<path d="M180.681 30.7858C179.606 30.746 178.558 30.547 177.537 30.1889C176.529 29.8175 175.64 29.3201 174.871 28.6967C174.115 28.06 173.565 27.3305 173.22 26.5082L176.085 25.2746C176.284 25.7256 176.642 26.15 177.159 26.548C177.676 26.9459 178.273 27.2642 178.95 27.5029C179.626 27.7417 180.309 27.8611 180.999 27.8611C181.729 27.8611 182.412 27.7483 183.048 27.5228C183.685 27.2974 184.202 26.9658 184.6 26.5281C185.011 26.0771 185.217 25.5399 185.217 24.9165C185.217 24.2533 184.991 23.736 184.54 23.3646C184.103 22.98 183.546 22.6815 182.869 22.4693C182.206 22.2438 181.53 22.0316 180.84 21.8326C179.474 21.4878 178.253 21.0766 177.179 20.5991C176.105 20.1083 175.256 19.4916 174.632 18.7488C174.022 17.9927 173.717 17.0311 173.717 15.8639C173.717 14.6303 174.055 13.5626 174.732 12.6607C175.422 11.7587 176.323 11.0624 177.438 10.5716C178.552 10.0808 179.746 9.83545 181.019 9.83545C182.624 9.83545 184.089 10.1803 185.416 10.87C186.742 11.5598 187.73 12.4949 188.38 13.6753L185.694 15.2471C185.469 14.7696 185.124 14.3518 184.66 13.9937C184.196 13.6223 183.665 13.3305 183.068 13.1183C182.471 12.906 181.861 12.7933 181.238 12.78C180.468 12.7535 179.746 12.853 179.069 13.0785C178.406 13.304 177.869 13.6488 177.458 14.1131C177.06 14.564 176.861 15.1277 176.861 15.8042C176.861 16.4674 177.073 16.9714 177.497 17.3163C177.935 17.6611 178.499 17.9397 179.188 18.1519C179.891 18.3509 180.654 18.583 181.476 18.8483C182.684 19.2329 183.811 19.6773 184.859 20.1813C185.907 20.6853 186.749 21.3153 187.386 22.0714C188.035 22.8274 188.354 23.7625 188.341 24.8767C188.341 26.097 187.976 27.1647 187.246 28.0799C186.517 28.9819 185.568 29.6716 184.401 30.1491C183.247 30.6266 182.007 30.8388 180.681 30.7858Z" fill="black"/>
<path d="M151.174 30.4076H147.792L141.127 10.5117H144.39L149.523 25.6922L154.596 10.5117H158.038L163.132 25.6922L168.205 10.5117H171.508L164.843 30.4076H161.44L156.287 15.0878L151.174 30.4076Z" fill="black"/>
<path d="M129.935 30.9248C128.105 30.9248 126.434 30.4539 124.922 29.5122C123.423 28.5705 122.222 27.3104 121.32 25.732C120.432 24.1403 119.987 22.3829 119.987 20.4596C119.987 19.0006 120.246 17.641 120.763 16.3809C121.281 15.1076 121.99 13.9934 122.892 13.0384C123.807 12.0702 124.869 11.3141 126.076 10.7703C127.283 10.2265 128.569 9.95459 129.935 9.95459C131.766 9.95459 133.43 10.4255 134.929 11.3672C136.441 12.3089 137.642 13.5756 138.53 15.1673C139.432 16.759 139.883 18.5231 139.883 20.4596C139.883 21.9054 139.625 23.2583 139.107 24.5183C138.59 25.7784 137.874 26.8926 136.959 27.8608C136.057 28.8158 135.002 29.5653 133.795 30.1091C132.601 30.6529 131.315 30.9248 129.935 30.9248ZM129.935 27.5823C131.182 27.5823 132.303 27.2573 133.298 26.6074C134.306 25.9442 135.095 25.0754 135.665 24.001C136.249 22.9134 136.541 21.7329 136.541 20.4596C136.541 19.1597 136.242 17.966 135.645 16.8783C135.062 15.7907 134.273 14.9219 133.278 14.272C132.283 13.6221 131.169 13.2971 129.935 13.2971C128.689 13.2971 127.568 13.6287 126.573 14.2919C125.578 14.9418 124.789 15.8106 124.205 16.8982C123.622 17.9859 123.33 19.173 123.33 20.4596C123.33 21.786 123.628 22.993 124.225 24.0806C124.822 25.155 125.625 26.0105 126.633 26.6472C127.641 27.2706 128.742 27.5823 129.935 27.5823Z" fill="black"/>
<path d="M113.254 30.4077V0.563965H116.596V30.4077H113.254Z" fill="black"/>
<path d="M93.9021 30.4079V2.55371H110.237V5.89621H97.2446V13.8148H108.327V17.1573H97.2446V30.4079H93.9021Z" fill="black"/>
<path d="M87.2464 10.5117H90.7878L79.9048 40.3555H76.3634L79.9645 30.4076L72.8219 10.5117H76.4827L81.6357 25.8116L87.2464 10.5117Z" fill="black"/>
<path d="M54.1888 40.3557H50.8463V10.5119H54.1888V13.9141C54.8653 12.7469 55.7672 11.8051 56.8946 11.0889C58.0221 10.3594 59.3617 9.99463 60.9136 9.99463C62.3594 9.99463 63.7123 10.2665 64.9724 10.8104C66.2457 11.3542 67.3599 12.1102 68.3149 13.0785C69.2699 14.0335 70.0193 15.141 70.5631 16.4011C71.1069 17.6612 71.3788 19.0141 71.3788 20.4598C71.3788 21.9056 71.1069 23.2651 70.5631 24.5385C70.0193 25.8118 69.2699 26.9326 68.3149 27.9009C67.3599 28.8559 66.2457 29.6053 64.9724 30.1491C63.7123 30.6929 62.3594 30.9648 60.9136 30.9648C59.3617 30.9648 58.0221 30.6067 56.8946 29.8905C55.7672 29.1609 54.8653 28.2126 54.1888 27.0454V40.3557ZM60.8738 13.2376C59.5872 13.2376 58.4598 13.5626 57.4915 14.2125C56.5233 14.8625 55.7738 15.7313 55.2433 16.8189C54.726 17.9065 54.4674 19.1202 54.4674 20.4598C54.4674 21.7862 54.726 22.9999 55.2433 24.1008C55.7738 25.2017 56.5166 26.0771 57.4716 26.727C58.4399 27.377 59.574 27.7019 60.8738 27.7019C62.1604 27.7019 63.3409 27.3836 64.4153 26.7469C65.4897 26.097 66.3518 25.2282 67.0017 24.1406C67.6517 23.0397 67.9766 21.8128 67.9766 20.4598C67.9766 19.1334 67.6583 17.9264 67.0216 16.8388C66.385 15.7379 65.5294 14.8625 64.4551 14.2125C63.3807 13.5626 62.1869 13.2376 60.8738 13.2376Z" fill="black"/>
<path d="M43.5272 10.5117H46.8697V30.4075H43.5272L43.3879 27.0451C42.7645 28.1991 41.9023 29.1342 40.8014 29.8504C39.7138 30.5667 38.4139 30.9248 36.9018 30.9248C35.4428 30.9248 34.0766 30.6529 32.8033 30.1091C31.53 29.552 30.4025 28.7893 29.421 27.821C28.4527 26.8395 27.6967 25.7121 27.1529 24.4388C26.6091 23.1654 26.3372 21.7926 26.3372 20.3203C26.3372 18.9011 26.6024 17.5614 27.133 16.3014C27.6635 15.0413 28.3997 13.9404 29.3414 12.9987C30.2964 12.0437 31.3973 11.3009 32.6441 10.7703C33.8909 10.2265 35.2306 9.95459 36.6631 9.95459C38.2282 9.95459 39.601 10.326 40.7815 11.0688C41.962 11.7983 42.917 12.7466 43.6465 13.9139L43.5272 10.5117ZM36.8422 27.6818C38.1553 27.6818 39.2893 27.3634 40.2443 26.7268C41.2126 26.0768 41.9554 25.2014 42.4727 24.1005C43.0032 22.9996 43.2685 21.786 43.2685 20.4596C43.2685 19.1067 43.0032 17.8864 42.4727 16.7988C41.9421 15.6979 41.1927 14.8291 40.2245 14.1924C39.2695 13.5425 38.142 13.2175 36.8422 13.2175C35.529 13.2175 34.3353 13.5425 33.2609 14.1924C32.1865 14.8423 31.331 15.7177 30.6943 16.8187C30.0709 17.9063 29.7592 19.1199 29.7592 20.4596C29.7592 21.7992 30.0842 23.0195 30.7341 24.1204C31.3841 25.2081 32.2462 26.0768 33.3206 26.7268C34.395 27.3634 35.5688 27.6818 36.8422 27.6818Z" fill="black"/>
<path d="M13.6883 30.9249C11.8049 30.9249 10.0341 30.5535 8.37615 29.8107C6.71816 29.0547 5.25913 28.0201 3.99906 26.707C2.75226 25.3806 1.77073 23.842 1.05448 22.0911C0.351493 20.3403 0 18.4701 0 16.4805C0 14.4909 0.351493 12.6207 1.05448 10.8699C1.77073 9.11905 2.75226 7.58707 3.99906 6.27395C5.25913 4.94756 6.71816 3.91297 8.37615 3.1702C10.0341 2.41415 11.8049 2.03613 13.6883 2.03613C15.9432 2.03613 18.019 2.56006 19.9157 3.6079C21.8125 4.65575 23.3842 6.04846 24.631 7.78603L21.6666 9.3777C20.7381 8.15742 19.5642 7.18916 18.145 6.4729C16.739 5.74339 15.2535 5.37863 13.6883 5.37863C12.2426 5.37863 10.8897 5.67044 9.62958 6.25405C8.38278 6.83766 7.28851 7.64013 6.34677 8.66145C5.40504 9.68277 4.66889 10.8633 4.13833 12.2029C3.60778 13.5426 3.3425 14.9684 3.3425 16.4805C3.3425 18.0059 3.60778 19.4384 4.13833 20.778C4.68215 22.1177 5.42493 23.2981 6.36667 24.3195C7.32167 25.3408 8.42257 26.1433 9.66938 26.7269C10.9294 27.2972 12.2691 27.5824 13.6883 27.5824C15.3065 27.5824 16.8053 27.2176 18.1848 26.4881C19.5775 25.7453 20.7381 24.7771 21.6666 23.5833L24.631 25.1949C23.3842 26.9325 21.8125 28.3252 19.9157 29.373C18.019 30.4076 15.9432 30.9249 13.6883 30.9249Z" fill="black"/>
</svg>
