<svg width="114" height="118" viewBox="0 0 114 118" fill="none" xmlns="http://www.w3.org/2000/svg">
<path d="M12.0836 51.3294C12.0836 51.3294 32.0229 50.5309 36.3318 17.7549C40.1583 -11.3534 73.7812 1.89565 83.5003 13.4989C96.0906 28.5299 89.3791 54.3864 105.666 57.6528C121.953 60.9192 111.318 97.2361 86.5947 93.76C55.8403 89.4358 63.2811 107.407 54.0488 115.013C47.423 120.473 20.2547 115.217 19.3493 95.4002C18.5873 78.7243 11.553 78.7771 6.56711 76.8863C-0.623749 74.1591 -5.15478 54.4088 12.0836 51.3294Z" fill="#DEE9FF"/>
<path d="M79.8661 87.7292L60.2764 68.3718L56.3973 72.2975L75.9871 91.6548L79.8661 87.7292Z" fill="#699CFF"/>
<path d="M87.3496 92.9306L72.1087 77.8706C72.0239 77.7867 71.8871 77.7875 71.8033 77.8724L66.0347 83.7103C65.9508 83.7951 65.9517 83.9319 66.0365 84.0157L81.2774 99.0758C81.3623 99.1596 81.499 99.1588 81.5829 99.074L87.3515 93.2361C87.4353 93.1512 87.4345 93.0145 87.3496 92.9306Z" fill="#0E84E5"/>
<path d="M42.9138 78.1072C56.391 78.1072 67.3164 67.1818 67.3164 53.7046C67.3164 40.2274 56.391 29.302 42.9138 29.302C29.4366 29.302 18.5112 40.2274 18.5112 53.7046C18.5112 67.1818 29.4366 78.1072 42.9138 78.1072Z" fill="#0E84E5"/>
<path d="M42.914 74.1254C54.1921 74.1254 63.3349 64.9827 63.3349 53.7045C63.3349 42.4264 54.1921 33.2837 42.914 33.2837C31.6359 33.2837 22.4932 42.4264 22.4932 53.7045C22.4932 64.9827 31.6359 74.1254 42.914 74.1254Z" fill="#D4E5FF"/>
<path d="M84.1695 31.6445C78.4455 29.7892 72.2596 32.9271 70.3967 38.6747C68.5414 44.3987 71.6793 50.5846 77.4269 52.4474C83.1746 54.3103 89.3443 51.1416 91.2 45.4173C93.0558 39.693 89.8938 33.4998 84.1695 31.6445ZM82.4424 36.9733C83.0831 37.1809 83.6477 37.5742 84.0645 38.1032C84.4814 38.6323 84.7318 39.2732 84.7839 39.9447C84.836 40.6162 84.6875 41.288 84.3572 41.875C84.0269 42.462 83.5298 42.9377 82.9288 43.2417C82.3278 43.5457 81.65 43.6644 80.9815 43.5827C80.3129 43.501 79.6837 43.2226 79.1736 42.7828C78.6635 42.343 78.2956 41.7616 78.1164 41.1123C77.9372 40.4631 77.9548 39.7753 78.1671 39.1361C78.7403 37.3676 80.6736 36.4001 82.4424 36.9733ZM78.1208 50.3066C76.2191 49.6934 74.5898 48.4381 73.5118 46.7557C75.5289 45.6095 77.6381 45.2903 79.5463 45.9087C81.4544 46.5272 83.006 48.0072 83.9365 50.1345C82.0766 50.8647 80.0207 50.9256 78.1208 50.3066Z" fill="#418DF9"/>
<path d="M36.5267 83.8049C35.5325 84.3124 34.7111 85.1033 34.1664 86.0776C33.6216 87.052 33.3781 88.166 33.4665 89.2787C33.5548 90.3915 33.9712 91.453 34.6629 92.3292C35.3546 93.2053 36.2906 93.8566 37.3525 94.2008C38.4144 94.545 39.5545 94.5665 40.6286 94.2627C41.7027 93.959 42.6627 93.3435 43.387 92.4941C44.1114 91.6448 44.5676 90.5997 44.698 89.4911C44.8283 88.3825 44.6271 87.2601 44.1196 86.2658C43.4378 84.9338 42.2555 83.9266 40.8321 83.4652C39.4086 83.0038 37.8602 83.126 36.5267 83.8049ZM37.8413 86.3802C38.151 86.2221 38.5006 86.1595 38.8459 86.2005C39.1911 86.2414 39.5165 86.3839 39.7806 86.61C40.0447 86.8361 40.2358 87.1355 40.3295 87.4703C40.4232 87.8052 40.4153 88.1603 40.3069 88.4906C40.1985 88.8209 39.9944 89.1116 39.7205 89.3258C39.4467 89.54 39.1153 89.668 38.7686 89.6936C38.4219 89.7193 38.0754 89.6413 37.773 89.4697C37.4706 89.2981 37.226 89.0405 37.0703 88.7297C36.8638 88.3154 36.829 87.8363 36.9733 87.3965C37.1176 86.9567 37.4295 86.5914 37.8413 86.38V86.3802ZM41.1305 92.8242C40.2126 93.2945 39.1597 93.431 38.1522 93.2103C38.4701 92.0557 39.1234 91.1694 40.0458 90.6987C40.9682 90.2279 42.0745 90.2019 43.1905 90.6386C42.7781 91.5839 42.0499 92.3565 41.1305 92.8239V92.8242Z" fill="#418DF9"/>
</svg>
