<svg width="109" height="111" viewBox="0 0 109 111" fill="none" xmlns="http://www.w3.org/2000/svg">
<path d="M35.3496 107.707C42.9902 112.312 48.4409 110.4 50.5277 106.707C54.5632 99.5654 67.9812 84.9612 89.2447 80.0251C117.407 73.4875 111.526 56.1292 94.2132 47.0203C76.9007 37.9115 63.9558 25.3076 65.915 11.6032C67.8742 -2.10117 48.4622 -6.82552 39.8294 19.5371C34.2507 36.5737 24.2533 41.1379 17.8781 42.235C11.8696 43.269 5.29709 44.5663 2.09201 49.7527C-1.79714 56.0455 -0.440011 62.411 15.843 66.7769C38.9176 72.9638 18.2238 97.3835 35.3496 107.707Z" fill="#DEE9FF"/>
<path d="M15.498 77.8466C15.8214 77.6615 19.4709 76.1165 37.6267 84.5806C37.5738 84.6526 37.5514 84.6867 37.5514 84.6867C37.5514 84.6867 18.6766 91.0431 14.9785 83.2124C13.8742 80.8812 14.1906 79.2759 15.4665 77.8647L15.498 77.8466Z" fill="#0E84E5"/>
<path d="M76.5211 81.0496C72.5766 84.3657 66.3907 86.7726 60.4219 83.572C61.3651 82.9693 62.3393 82.3485 63.3329 81.7063C69.3271 77.8549 74.607 80.4319 76.5211 81.0496Z" fill="#0E84E5"/>
<path d="M83.5866 40.265C87.6166 73.8232 78.0393 79.9136 76.9732 80.8387C76.6645 81.1065 76.5394 81.087 76.0727 80.9669L76.0647 80.9714C74.0895 80.4477 69.3273 77.8548 63.3328 81.7058C62.3392 82.348 61.3647 82.9687 60.4218 83.5715C54.3068 87.4497 49.3688 90.1827 45.8112 88.5965C42.7936 87.0571 40.0728 85.7248 37.6267 84.5805C19.4709 76.1164 15.8214 77.6613 15.498 77.8465C15.8732 77.6422 19.3151 75.7343 23.9494 72.3793C23.9652 72.3703 23.9809 72.3613 23.9843 72.3489C30.1788 67.8597 38.4744 60.7853 44.4373 51.6849C48.4966 45.4966 52.4677 29.8087 60.1299 26.7306C75.8771 20.8561 82.9327 33.4392 83.5866 40.265Z" fill="#699CFF"/>
<path d="M66.1747 39.6763C66.6635 38.3856 66.6158 37.1711 66.0683 36.9638C65.5207 36.7564 64.6805 37.6346 64.1917 38.9254C63.7029 40.2161 63.7505 41.4306 64.2981 41.6379C64.8457 41.8453 65.6859 40.9671 66.1747 39.6763Z" fill="white"/>
<path d="M76.2013 41.3233C76.5477 39.9873 76.3691 38.7851 75.8023 38.6382C75.2355 38.4912 74.4952 39.4551 74.1487 40.7911C73.8023 42.1271 73.981 43.3293 74.5478 43.4763C75.1146 43.6233 75.8549 42.6594 76.2013 41.3233Z" fill="white"/>
<path d="M70.0981 46.2285C70.0159 46.2284 69.9363 46.2003 69.8724 46.1487C69.8085 46.0971 69.7641 46.0253 69.7466 45.945C69.6825 45.6544 69.3969 44.7946 68.9442 44.6668C68.4915 44.539 67.6033 45.0351 67.2441 45.2954C67.1667 45.3514 67.0703 45.3744 66.976 45.3593C66.8817 45.3442 66.7973 45.2923 66.7413 45.215C66.6853 45.1376 66.6623 45.0412 66.6774 44.9469C66.6925 44.8527 66.7444 44.7682 66.8217 44.7122C66.9633 44.6097 68.2315 43.7175 69.1397 43.9738C70.0868 44.241 70.4158 45.6339 70.4501 45.7918C70.4615 45.8444 70.4611 45.8989 70.4487 45.9513C70.4363 46.0037 70.4124 46.0526 70.3786 46.0945C70.3448 46.1364 70.302 46.1702 70.2535 46.1934C70.2049 46.2166 70.1518 46.2286 70.0979 46.2285H70.0981Z" fill="white"/>
</svg>
